<mxfile host="app.diagrams.net" modified="2024-02-29T07:24:45.579Z" agent="Mozilla/5.0 (Windows NT 10.0; Win64; x64) AppleWebKit/537.36 (KHTML, like Gecko) Chrome/122.0.0.0 Safari/537.36" etag="lNLyhGJSewP-qWtowo0V" version="23.1.5" type="device">
  <diagram name="Страница — 1" id="L5Lw2Jfq5tg-N73zO9sJ">
    <mxGraphModel dx="2972" dy="1560" grid="1" gridSize="10" guides="1" tooltips="1" connect="1" arrows="1" fold="1" page="1" pageScale="1" pageWidth="1169" pageHeight="827" math="0" shadow="0">
      <root>
        <mxCell id="0" />
        <mxCell id="1" parent="0" />
        <mxCell id="R6VuRgoYyJXLx6Cd2DXd-4" style="edgeStyle=orthogonalEdgeStyle;rounded=0;orthogonalLoop=1;jettySize=auto;html=1;" edge="1" parent="1" source="R6VuRgoYyJXLx6Cd2DXd-2" target="R6VuRgoYyJXLx6Cd2DXd-3">
          <mxGeometry relative="1" as="geometry" />
        </mxCell>
        <mxCell id="R6VuRgoYyJXLx6Cd2DXd-2" value="Начало" style="rounded=1;whiteSpace=wrap;html=1;arcSize=50;" vertex="1" parent="1">
          <mxGeometry x="525.005" y="50" width="105" height="50" as="geometry" />
        </mxCell>
        <mxCell id="R6VuRgoYyJXLx6Cd2DXd-6" style="edgeStyle=orthogonalEdgeStyle;rounded=0;orthogonalLoop=1;jettySize=auto;html=1;entryX=0.5;entryY=0;entryDx=0;entryDy=0;" edge="1" parent="1" source="R6VuRgoYyJXLx6Cd2DXd-3" target="R6VuRgoYyJXLx6Cd2DXd-5">
          <mxGeometry relative="1" as="geometry" />
        </mxCell>
        <mxCell id="R6VuRgoYyJXLx6Cd2DXd-3" value="Ввод работы" style="shape=parallelogram;perimeter=parallelogramPerimeter;whiteSpace=wrap;html=1;fixedSize=1;" vertex="1" parent="1">
          <mxGeometry x="492.505" y="155" width="170" height="50" as="geometry" />
        </mxCell>
        <mxCell id="R6VuRgoYyJXLx6Cd2DXd-8" style="edgeStyle=orthogonalEdgeStyle;rounded=0;orthogonalLoop=1;jettySize=auto;html=1;entryX=0.5;entryY=0;entryDx=0;entryDy=0;" edge="1" parent="1" source="R6VuRgoYyJXLx6Cd2DXd-5" target="R6VuRgoYyJXLx6Cd2DXd-7">
          <mxGeometry relative="1" as="geometry" />
        </mxCell>
        <mxCell id="R6VuRgoYyJXLx6Cd2DXd-5" value="Работа отображена в списке" style="shape=process;whiteSpace=wrap;html=1;backgroundOutline=1;" vertex="1" parent="1">
          <mxGeometry x="501.255" y="265" width="152.5" height="60" as="geometry" />
        </mxCell>
        <mxCell id="R6VuRgoYyJXLx6Cd2DXd-15" style="edgeStyle=orthogonalEdgeStyle;rounded=0;orthogonalLoop=1;jettySize=auto;html=1;entryX=0.5;entryY=0;entryDx=0;entryDy=0;" edge="1" parent="1" source="R6VuRgoYyJXLx6Cd2DXd-7" target="R6VuRgoYyJXLx6Cd2DXd-14">
          <mxGeometry relative="1" as="geometry" />
        </mxCell>
        <mxCell id="R6VuRgoYyJXLx6Cd2DXd-7" value="Студент записался на работу?" style="rhombus;whiteSpace=wrap;html=1;" vertex="1" parent="1">
          <mxGeometry x="473.13" y="380" width="208.75" height="100" as="geometry" />
        </mxCell>
        <mxCell id="R6VuRgoYyJXLx6Cd2DXd-11" value="" style="endArrow=classic;html=1;rounded=0;exitX=0;exitY=0.5;exitDx=0;exitDy=0;" edge="1" parent="1" source="R6VuRgoYyJXLx6Cd2DXd-7">
          <mxGeometry width="50" height="50" relative="1" as="geometry">
            <mxPoint x="500" y="360" as="sourcePoint" />
            <mxPoint x="578" y="360" as="targetPoint" />
            <Array as="points">
              <mxPoint x="380" y="430" />
              <mxPoint x="380" y="360" />
            </Array>
          </mxGeometry>
        </mxCell>
        <mxCell id="R6VuRgoYyJXLx6Cd2DXd-12" value="Нет" style="text;html=1;align=center;verticalAlign=middle;whiteSpace=wrap;rounded=0;" vertex="1" parent="1">
          <mxGeometry x="400" y="399" width="60" height="30" as="geometry" />
        </mxCell>
        <mxCell id="R6VuRgoYyJXLx6Cd2DXd-17" style="edgeStyle=orthogonalEdgeStyle;rounded=0;orthogonalLoop=1;jettySize=auto;html=1;entryX=0.5;entryY=0;entryDx=0;entryDy=0;" edge="1" parent="1" source="R6VuRgoYyJXLx6Cd2DXd-14" target="R6VuRgoYyJXLx6Cd2DXd-16">
          <mxGeometry relative="1" as="geometry" />
        </mxCell>
        <mxCell id="R6VuRgoYyJXLx6Cd2DXd-14" value="Инициирование работы" style="shape=process;whiteSpace=wrap;html=1;backgroundOutline=1;" vertex="1" parent="1">
          <mxGeometry x="501.255" y="540" width="152.5" height="60" as="geometry" />
        </mxCell>
        <mxCell id="R6VuRgoYyJXLx6Cd2DXd-19" style="edgeStyle=orthogonalEdgeStyle;rounded=0;orthogonalLoop=1;jettySize=auto;html=1;entryX=0.5;entryY=0;entryDx=0;entryDy=0;" edge="1" parent="1" source="R6VuRgoYyJXLx6Cd2DXd-16" target="R6VuRgoYyJXLx6Cd2DXd-21">
          <mxGeometry relative="1" as="geometry">
            <mxPoint x="340" y="840" as="targetPoint" />
          </mxGeometry>
        </mxCell>
        <mxCell id="R6VuRgoYyJXLx6Cd2DXd-25" style="edgeStyle=orthogonalEdgeStyle;rounded=0;orthogonalLoop=1;jettySize=auto;html=1;entryX=0.5;entryY=0;entryDx=0;entryDy=0;" edge="1" parent="1" source="R6VuRgoYyJXLx6Cd2DXd-16">
          <mxGeometry relative="1" as="geometry">
            <mxPoint x="577.5050000000003" y="840" as="targetPoint" />
          </mxGeometry>
        </mxCell>
        <mxCell id="R6VuRgoYyJXLx6Cd2DXd-16" value="Студент выполнил работу?" style="rhombus;whiteSpace=wrap;html=1;" vertex="1" parent="1">
          <mxGeometry x="473.13" y="670" width="208.75" height="100" as="geometry" />
        </mxCell>
        <mxCell id="R6VuRgoYyJXLx6Cd2DXd-20" value="Нет" style="text;html=1;align=center;verticalAlign=middle;whiteSpace=wrap;rounded=0;" vertex="1" parent="1">
          <mxGeometry x="400" y="690" width="60" height="30" as="geometry" />
        </mxCell>
        <mxCell id="R6VuRgoYyJXLx6Cd2DXd-33" style="edgeStyle=orthogonalEdgeStyle;rounded=0;orthogonalLoop=1;jettySize=auto;html=1;entryX=0.5;entryY=0;entryDx=0;entryDy=0;" edge="1" parent="1" source="R6VuRgoYyJXLx6Cd2DXd-21" target="R6VuRgoYyJXLx6Cd2DXd-32">
          <mxGeometry relative="1" as="geometry" />
        </mxCell>
        <mxCell id="R6VuRgoYyJXLx6Cd2DXd-21" value="Студенту выставлено 0 баллов" style="shape=process;whiteSpace=wrap;html=1;backgroundOutline=1;" vertex="1" parent="1">
          <mxGeometry x="229.995" y="860" width="152.5" height="60" as="geometry" />
        </mxCell>
        <mxCell id="R6VuRgoYyJXLx6Cd2DXd-23" value="Студенту выставлена часть баллов" style="shape=process;whiteSpace=wrap;html=1;backgroundOutline=1;" vertex="1" parent="1">
          <mxGeometry x="750.005" y="1000" width="152.5" height="60" as="geometry" />
        </mxCell>
        <mxCell id="R6VuRgoYyJXLx6Cd2DXd-27" value="Да" style="text;html=1;align=center;verticalAlign=middle;whiteSpace=wrap;rounded=0;" vertex="1" parent="1">
          <mxGeometry x="580" y="780" width="60" height="30" as="geometry" />
        </mxCell>
        <mxCell id="R6VuRgoYyJXLx6Cd2DXd-35" style="edgeStyle=orthogonalEdgeStyle;rounded=0;orthogonalLoop=1;jettySize=auto;html=1;entryX=0.5;entryY=0;entryDx=0;entryDy=0;" edge="1" parent="1" source="R6VuRgoYyJXLx6Cd2DXd-28" target="R6VuRgoYyJXLx6Cd2DXd-34">
          <mxGeometry relative="1" as="geometry" />
        </mxCell>
        <mxCell id="R6VuRgoYyJXLx6Cd2DXd-28" value="Баллы студентов" style="shape=cylinder3;whiteSpace=wrap;html=1;boundedLbl=1;backgroundOutline=1;size=15;" vertex="1" parent="1">
          <mxGeometry x="521.26" y="1130" width="112.49" height="50" as="geometry" />
        </mxCell>
        <mxCell id="R6VuRgoYyJXLx6Cd2DXd-37" style="edgeStyle=orthogonalEdgeStyle;rounded=0;orthogonalLoop=1;jettySize=auto;html=1;entryX=0.5;entryY=0;entryDx=0;entryDy=0;" edge="1" parent="1" source="R6VuRgoYyJXLx6Cd2DXd-30" target="R6VuRgoYyJXLx6Cd2DXd-36">
          <mxGeometry relative="1" as="geometry" />
        </mxCell>
        <mxCell id="R6VuRgoYyJXLx6Cd2DXd-30" value="Баллы студентов" style="shape=cylinder3;whiteSpace=wrap;html=1;boundedLbl=1;backgroundOutline=1;size=15;" vertex="1" parent="1">
          <mxGeometry x="770.01" y="1130" width="112.49" height="50" as="geometry" />
        </mxCell>
        <mxCell id="R6VuRgoYyJXLx6Cd2DXd-31" style="edgeStyle=orthogonalEdgeStyle;rounded=0;orthogonalLoop=1;jettySize=auto;html=1;entryX=0.5;entryY=0;entryDx=0;entryDy=0;entryPerimeter=0;" edge="1" parent="1" source="R6VuRgoYyJXLx6Cd2DXd-23" target="R6VuRgoYyJXLx6Cd2DXd-30">
          <mxGeometry relative="1" as="geometry" />
        </mxCell>
        <mxCell id="R6VuRgoYyJXLx6Cd2DXd-32" value="Конец" style="rounded=1;whiteSpace=wrap;html=1;arcSize=50;" vertex="1" parent="1">
          <mxGeometry x="253.745" y="1005" width="105" height="50" as="geometry" />
        </mxCell>
        <mxCell id="R6VuRgoYyJXLx6Cd2DXd-34" value="Конец" style="rounded=1;whiteSpace=wrap;html=1;arcSize=50;" vertex="1" parent="1">
          <mxGeometry x="524.265" y="1260" width="105" height="50" as="geometry" />
        </mxCell>
        <mxCell id="R6VuRgoYyJXLx6Cd2DXd-36" value="Конец" style="rounded=1;whiteSpace=wrap;html=1;arcSize=50;" vertex="1" parent="1">
          <mxGeometry x="773.755" y="1260" width="105" height="50" as="geometry" />
        </mxCell>
        <mxCell id="R6VuRgoYyJXLx6Cd2DXd-40" style="edgeStyle=orthogonalEdgeStyle;rounded=0;orthogonalLoop=1;jettySize=auto;html=1;entryX=0.5;entryY=0;entryDx=0;entryDy=0;" edge="1" parent="1" source="R6VuRgoYyJXLx6Cd2DXd-38" target="R6VuRgoYyJXLx6Cd2DXd-39">
          <mxGeometry relative="1" as="geometry" />
        </mxCell>
        <mxCell id="R6VuRgoYyJXLx6Cd2DXd-43" style="edgeStyle=orthogonalEdgeStyle;rounded=0;orthogonalLoop=1;jettySize=auto;html=1;entryX=0.5;entryY=0;entryDx=0;entryDy=0;" edge="1" parent="1" source="R6VuRgoYyJXLx6Cd2DXd-38" target="R6VuRgoYyJXLx6Cd2DXd-23">
          <mxGeometry relative="1" as="geometry" />
        </mxCell>
        <mxCell id="R6VuRgoYyJXLx6Cd2DXd-38" value="Студент полностью выполнил работу?" style="rhombus;whiteSpace=wrap;html=1;" vertex="1" parent="1">
          <mxGeometry x="473.13" y="840" width="208.75" height="100" as="geometry" />
        </mxCell>
        <mxCell id="R6VuRgoYyJXLx6Cd2DXd-39" value="Студенту выставлены баллы" style="shape=process;whiteSpace=wrap;html=1;backgroundOutline=1;" vertex="1" parent="1">
          <mxGeometry x="501.255" y="1000" width="152.5" height="60" as="geometry" />
        </mxCell>
        <mxCell id="R6VuRgoYyJXLx6Cd2DXd-41" value="Да" style="text;html=1;align=center;verticalAlign=middle;whiteSpace=wrap;rounded=0;" vertex="1" parent="1">
          <mxGeometry x="570.01" y="950" width="60" height="30" as="geometry" />
        </mxCell>
        <mxCell id="R6VuRgoYyJXLx6Cd2DXd-42" style="edgeStyle=orthogonalEdgeStyle;rounded=0;orthogonalLoop=1;jettySize=auto;html=1;entryX=0.5;entryY=0;entryDx=0;entryDy=0;entryPerimeter=0;" edge="1" parent="1" source="R6VuRgoYyJXLx6Cd2DXd-39" target="R6VuRgoYyJXLx6Cd2DXd-28">
          <mxGeometry relative="1" as="geometry" />
        </mxCell>
        <mxCell id="R6VuRgoYyJXLx6Cd2DXd-44" value="Нет" style="text;html=1;align=center;verticalAlign=middle;whiteSpace=wrap;rounded=0;" vertex="1" parent="1">
          <mxGeometry x="710.01" y="850" width="60" height="30" as="geometry" />
        </mxCell>
      </root>
    </mxGraphModel>
  </diagram>
</mxfile>
